<?xml version="1.0" standalone="no"?>
<!DOCTYPE svg PUBLIC "-//W3C//DTD SVG 20010904//EN"
 "http://www.w3.org/TR/2001/REC-SVG-20010904/DTD/svg10.dtd">
<svg version="1.0" xmlns="http://www.w3.org/2000/svg"
 width="192.000000pt" height="192.000000pt" viewBox="0 0 192.000000 192.000000"
 preserveAspectRatio="xMidYMid meet">
<metadata>
Created by potrace 1.14, written by Peter Selinger 2001-2017
</metadata>
<g transform="translate(0.000000,192.000000) scale(0.100000,-0.100000)"
fill="#000000" stroke="none">
<path d="M810 1909 c-363 -61 -660 -321 -769 -674 -30 -95 -36 -151 -35 -295
2 -112 6 -146 38 -270 8 -32 41 -107 69 -160 115 -217 312 -383 543 -459 116
-38 136 -41 274 -46 173 -6 303 22 455 96 215 105 369 275 476 524 50 116 71
362 43 505 -55 290 -228 530 -488 675 -60 33 -209 87 -277 100 -59 10 -272 13
-329 4z"/>
</g>
</svg>
